<svg width="63" height="15" viewBox="0 0 63 15" fill="none" xmlns="http://www.w3.org/2000/svg">
<path d="M0.9 0.0499997H2.91V8.48C2.91 8.85 2.97 9.095 3.09 9.215C3.21 9.335 3.375 9.395 3.585 9.395C3.745 9.395 3.91 9.375 4.08 9.335C4.25 9.295 4.4 9.245 4.53 9.185L4.8 10.715C4.53 10.845 4.215 10.945 3.855 11.015C3.495 11.085 3.17 11.12 2.88 11.12C2.25 11.12 1.76 10.955 1.41 10.625C1.07 10.285 0.9 9.805 0.9 9.185V0.0499997ZM5.67574 2.045V0.0499997H7.68574V2.045H5.67574ZM5.67574 11V3.14H7.68574V11H5.67574ZM14.209 10.595C13.939 10.715 13.604 10.835 13.204 10.955C12.814 11.075 12.409 11.135 11.989 11.135C11.619 11.135 11.279 11.07 10.969 10.94C10.659 10.81 10.409 10.605 10.219 10.325C10.039 10.035 9.94898 9.66 9.94898 9.2V4.685H8.91398V3.14H9.94898V0.59H11.959V3.14H13.609V4.685H11.959V8.525C11.959 8.795 12.029 8.99 12.169 9.11C12.319 9.23 12.499 9.29 12.709 9.29C12.919 9.29 13.124 9.255 13.324 9.185C13.524 9.115 13.684 9.055 13.804 9.005L14.209 10.595ZM18.7983 11.15C17.9483 11.15 17.2133 10.965 16.5933 10.595C15.9833 10.225 15.5083 9.735 15.1683 9.125C14.8283 8.505 14.6583 7.835 14.6583 7.115C14.6583 6.375 14.8233 5.695 15.1533 5.075C15.4933 4.445 15.9733 3.945 16.5933 3.575C17.2133 3.195 17.9533 3.005 18.8133 3.005C19.6733 3.005 20.4083 3.195 21.0183 3.575C21.6283 3.945 22.0933 4.44 22.4133 5.06C22.7433 5.67 22.9083 6.33 22.9083 7.04C22.9083 7.3 22.8933 7.525 22.8633 7.715H16.7883C16.8383 8.325 17.0633 8.805 17.4633 9.155C17.8733 9.505 18.3433 9.68 18.8733 9.68C19.2733 9.68 19.6483 9.585 19.9983 9.395C20.3583 9.195 20.6033 8.935 20.7333 8.615L22.4583 9.095C22.1683 9.695 21.7033 10.19 21.0633 10.58C20.4233 10.96 19.6683 11.15 18.7983 11.15ZM16.7433 6.44H20.8533C20.7933 5.85 20.5683 5.375 20.1783 5.015C19.7983 4.645 19.3333 4.46 18.7833 4.46C18.2433 4.46 17.7783 4.645 17.3883 5.015C17.0083 5.375 16.7933 5.85 16.7433 6.44ZM24.0878 11V8.84H25.7378V11H24.0878ZM32.2119 11.15C31.5919 11.15 31.0519 11.01 30.5919 10.73C30.1319 10.45 29.7719 10.08 29.5119 9.62V14.195H27.5019V3.14H29.2569V4.49C29.5469 4.03 29.9219 3.67 30.3819 3.41C30.8519 3.14 31.3819 3.005 31.9719 3.005C32.6819 3.005 33.3119 3.19 33.8619 3.56C34.4119 3.92 34.8469 4.41 35.1669 5.03C35.4869 5.64 35.6469 6.315 35.6469 7.055C35.6469 7.825 35.4969 8.52 35.1969 9.14C34.9069 9.75 34.5019 10.24 33.9819 10.61C33.4719 10.97 32.8819 11.15 32.2119 11.15ZM31.5369 9.44C31.9469 9.44 32.3019 9.33 32.6019 9.11C32.9119 8.88 33.1519 8.585 33.3219 8.225C33.5019 7.855 33.5919 7.465 33.5919 7.055C33.5919 6.615 33.4969 6.22 33.3069 5.87C33.1169 5.51 32.8569 5.23 32.5269 5.03C32.2069 4.82 31.8369 4.715 31.4169 4.715C31.0369 4.715 30.6569 4.84 30.2769 5.09C29.8969 5.34 29.6419 5.655 29.5119 6.035V7.88C29.6919 8.32 29.9669 8.69 30.3369 8.99C30.7069 9.29 31.1069 9.44 31.5369 9.44ZM36.4688 8.675C36.4688 8.165 36.6088 7.72 36.8888 7.34C37.1788 6.95 37.5788 6.65 38.0888 6.44C38.5988 6.23 39.1838 6.125 39.8438 6.125C40.1738 6.125 40.5088 6.155 40.8488 6.215C41.1888 6.265 41.4838 6.34 41.7338 6.44V6.02C41.7338 5.52 41.5838 5.135 41.2838 4.865C40.9938 4.595 40.5588 4.46 39.9788 4.46C39.5488 4.46 39.1388 4.535 38.7488 4.685C38.3588 4.835 37.9488 5.055 37.5188 5.345L36.8738 4.025C37.3938 3.685 37.9238 3.43 38.4638 3.26C39.0138 3.09 39.5888 3.005 40.1888 3.005C41.3088 3.005 42.1788 3.285 42.7988 3.845C43.4288 4.405 43.7438 5.205 43.7438 6.245V8.75C43.7438 8.97 43.7788 9.125 43.8488 9.215C43.9188 9.295 44.0438 9.345 44.2238 9.365V11C44.0438 11.04 43.8788 11.065 43.7288 11.075C43.5888 11.095 43.4688 11.105 43.3688 11.105C42.9688 11.105 42.6638 11.015 42.4538 10.835C42.2438 10.655 42.1188 10.435 42.0788 10.175L42.0338 9.77C41.6838 10.22 41.2538 10.565 40.7438 10.805C40.2438 11.035 39.7288 11.15 39.1988 11.15C38.6688 11.15 38.1988 11.045 37.7888 10.835C37.3788 10.615 37.0538 10.32 36.8138 9.95C36.5838 9.57 36.4688 9.145 36.4688 8.675ZM41.3588 9.08C41.6088 8.84 41.7338 8.61 41.7338 8.39V7.595C41.2138 7.385 40.6888 7.28 40.1588 7.28C39.6288 7.28 39.1988 7.395 38.8688 7.625C38.5388 7.845 38.3738 8.14 38.3738 8.51C38.3738 8.81 38.4938 9.08 38.7338 9.32C38.9738 9.56 39.3188 9.68 39.7688 9.68C40.0688 9.68 40.3588 9.625 40.6388 9.515C40.9288 9.405 41.1688 9.26 41.3588 9.08ZM48.697 11.045C47.997 11.045 47.382 10.865 46.852 10.505C46.322 10.145 45.907 9.665 45.607 9.065C45.307 8.455 45.157 7.79 45.157 7.07C45.157 6.31 45.312 5.625 45.622 5.015C45.932 4.395 46.362 3.905 46.912 3.545C47.462 3.185 48.097 3.005 48.817 3.005C49.427 3.005 49.962 3.145 50.422 3.425C50.882 3.695 51.262 4.06 51.562 4.52V3.14H53.317V10.625C53.317 11.405 53.127 12.07 52.747 12.62C52.377 13.18 51.862 13.605 51.202 13.895C50.542 14.195 49.792 14.345 48.952 14.345C48.092 14.345 47.367 14.2 46.777 13.91C46.197 13.63 45.697 13.23 45.277 12.71L46.372 11.645C46.672 12.015 47.047 12.305 47.497 12.515C47.957 12.725 48.442 12.83 48.952 12.83C49.372 12.83 49.757 12.75 50.107 12.59C50.467 12.44 50.757 12.2 50.977 11.87C51.197 11.55 51.307 11.135 51.307 10.625V9.635C51.047 10.085 50.677 10.435 50.197 10.685C49.727 10.925 49.227 11.045 48.697 11.045ZM49.372 9.44C49.812 9.44 50.207 9.31 50.557 9.05C50.917 8.79 51.167 8.48 51.307 8.12V6.245C51.127 5.785 50.842 5.415 50.452 5.135C50.072 4.855 49.672 4.715 49.252 4.715C48.842 4.715 48.482 4.83 48.172 5.06C47.872 5.29 47.637 5.59 47.467 5.96C47.297 6.32 47.212 6.71 47.212 7.13C47.212 7.56 47.307 7.95 47.497 8.3C47.687 8.65 47.942 8.93 48.262 9.14C48.592 9.34 48.962 9.44 49.372 9.44ZM58.7739 11.15C57.9239 11.15 57.1889 10.965 56.5689 10.595C55.9589 10.225 55.4839 9.735 55.1439 9.125C54.8039 8.505 54.6339 7.835 54.6339 7.115C54.6339 6.375 54.7989 5.695 55.1289 5.075C55.4689 4.445 55.9489 3.945 56.5689 3.575C57.1889 3.195 57.9289 3.005 58.7889 3.005C59.6489 3.005 60.3839 3.195 60.9939 3.575C61.6039 3.945 62.0689 4.44 62.3889 5.06C62.7189 5.67 62.8839 6.33 62.8839 7.04C62.8839 7.3 62.8689 7.525 62.8389 7.715H56.7639C56.8139 8.325 57.0389 8.805 57.4389 9.155C57.8489 9.505 58.3189 9.68 58.8489 9.68C59.2489 9.68 59.6239 9.585 59.9739 9.395C60.3339 9.195 60.5789 8.935 60.7089 8.615L62.4339 9.095C62.1439 9.695 61.6789 10.19 61.0389 10.58C60.3989 10.96 59.6439 11.15 58.7739 11.15ZM56.7189 6.44H60.8289C60.7689 5.85 60.5439 5.375 60.1539 5.015C59.7739 4.645 59.3089 4.46 58.7589 4.46C58.2189 4.46 57.7539 4.645 57.3639 5.015C56.9839 5.375 56.7689 5.85 56.7189 6.44Z" fill="#1C1E20"/>
</svg>
